<mxfile host="app.diagrams.net" modified="2023-05-10T04:31:23.042Z" agent="Mozilla/5.0 (Macintosh; Intel Mac OS X 10_15_7) AppleWebKit/537.36 (KHTML, like Gecko) Chrome/112.0.0.0 Safari/537.36" etag="NEOCj30uljNh3t7eLLqj" version="21.2.9" type="device">
  <diagram name="第 1 页" id="DX2dFO7ZK0k1u00_ZafP">
    <mxGraphModel dx="1001" dy="1734" grid="1" gridSize="10" guides="1" tooltips="1" connect="1" arrows="1" fold="1" page="1" pageScale="1" pageWidth="827" pageHeight="1169" math="0" shadow="0">
      <root>
        <mxCell id="0" />
        <mxCell id="1" parent="0" />
        <mxCell id="zWgI9yotnIDvIBmHH8jw-10" value="&lt;b style=&quot;border-color: var(--border-color);&quot;&gt;&lt;br&gt;管理者&lt;br&gt;&lt;/b&gt;" style="swimlane;fontStyle=4;align=center;verticalAlign=top;childLayout=stackLayout;horizontal=1;startSize=60;horizontalStack=0;resizeParent=1;resizeParentMax=0;resizeLast=0;collapsible=0;marginBottom=0;html=1;rounded=1;absoluteArcSize=1;arcSize=50;whiteSpace=wrap;" vertex="1" parent="1">
          <mxGeometry x="477" y="270" width="140" height="68" as="geometry" />
        </mxCell>
        <mxCell id="zWgI9yotnIDvIBmHH8jw-13" value="" style="line;strokeWidth=1;fillColor=none;align=left;verticalAlign=middle;spacingTop=-1;spacingLeft=3;spacingRight=3;rotatable=0;labelPosition=right;points=[];portConstraint=eastwest;" vertex="1" parent="zWgI9yotnIDvIBmHH8jw-10">
          <mxGeometry y="60" width="140" height="8" as="geometry" />
        </mxCell>
        <mxCell id="zWgI9yotnIDvIBmHH8jw-26" value="&lt;b style=&quot;border-color: var(--border-color);&quot;&gt;&lt;br&gt;電影星等數&lt;br&gt;&lt;/b&gt;" style="swimlane;fontStyle=4;align=center;verticalAlign=top;childLayout=stackLayout;horizontal=1;startSize=60;horizontalStack=0;resizeParent=1;resizeParentMax=0;resizeLast=0;collapsible=0;marginBottom=0;html=1;rounded=1;absoluteArcSize=1;arcSize=50;whiteSpace=wrap;" vertex="1" parent="1">
          <mxGeometry x="477" y="-110" width="140" height="68" as="geometry" />
        </mxCell>
        <mxCell id="zWgI9yotnIDvIBmHH8jw-29" value="" style="line;strokeWidth=1;fillColor=none;align=left;verticalAlign=middle;spacingTop=-1;spacingLeft=3;spacingRight=3;rotatable=0;labelPosition=right;points=[];portConstraint=eastwest;" vertex="1" parent="zWgI9yotnIDvIBmHH8jw-26">
          <mxGeometry y="60" width="140" height="8" as="geometry" />
        </mxCell>
        <mxCell id="zWgI9yotnIDvIBmHH8jw-32" value="&lt;b style=&quot;border-color: var(--border-color);&quot;&gt;&lt;br&gt;電影&lt;br&gt;&lt;/b&gt;" style="swimlane;fontStyle=4;align=center;verticalAlign=top;childLayout=stackLayout;horizontal=1;startSize=60;horizontalStack=0;resizeParent=1;resizeParentMax=0;resizeLast=0;collapsible=0;marginBottom=0;html=1;rounded=1;absoluteArcSize=1;arcSize=50;whiteSpace=wrap;" vertex="1" parent="1">
          <mxGeometry x="477" y="55" width="140" height="118" as="geometry" />
        </mxCell>
        <mxCell id="zWgI9yotnIDvIBmHH8jw-33" value="" style="fillColor=none;strokeColor=none;container=1;collapsible=0;" vertex="1" parent="zWgI9yotnIDvIBmHH8jw-32">
          <mxGeometry y="60" width="140" height="50" as="geometry" />
        </mxCell>
        <mxCell id="zWgI9yotnIDvIBmHH8jw-34" value="" style="html=1;align=center;verticalAlign=middle;rounded=1;absoluteArcSize=1;arcSize=10;whiteSpace=wrap;strokeColor=none;opacity=0;" vertex="1" parent="zWgI9yotnIDvIBmHH8jw-33">
          <mxGeometry y="10" width="130" height="30" as="geometry" />
        </mxCell>
        <mxCell id="zWgI9yotnIDvIBmHH8jw-45" value="－名稱&lt;br&gt;－簡介&lt;br&gt;－評分數" style="html=1;align=left;verticalAlign=middle;rounded=1;absoluteArcSize=1;arcSize=10;whiteSpace=wrap;strokeColor=none;opacity=0;" vertex="1" parent="zWgI9yotnIDvIBmHH8jw-33">
          <mxGeometry x="6" y="9" width="130" height="30" as="geometry" />
        </mxCell>
        <mxCell id="zWgI9yotnIDvIBmHH8jw-35" value="" style="line;strokeWidth=1;fillColor=none;align=left;verticalAlign=middle;spacingTop=-1;spacingLeft=3;spacingRight=3;rotatable=0;labelPosition=right;points=[];portConstraint=eastwest;" vertex="1" parent="zWgI9yotnIDvIBmHH8jw-32">
          <mxGeometry y="110" width="140" height="8" as="geometry" />
        </mxCell>
        <mxCell id="zWgI9yotnIDvIBmHH8jw-38" value="&lt;b style=&quot;border-color: var(--border-color);&quot;&gt;&lt;br&gt;使用者&lt;br&gt;&lt;/b&gt;" style="swimlane;fontStyle=4;align=center;verticalAlign=top;childLayout=stackLayout;horizontal=1;startSize=60;horizontalStack=0;resizeParent=1;resizeParentMax=0;resizeLast=0;collapsible=0;marginBottom=0;html=1;rounded=1;absoluteArcSize=1;arcSize=50;whiteSpace=wrap;" vertex="1" parent="1">
          <mxGeometry x="255.5" y="270" width="143" height="108" as="geometry" />
        </mxCell>
        <mxCell id="zWgI9yotnIDvIBmHH8jw-39" value="" style="fillColor=none;strokeColor=none;container=1;collapsible=0;" vertex="1" parent="zWgI9yotnIDvIBmHH8jw-38">
          <mxGeometry y="60" width="143" height="40" as="geometry" />
        </mxCell>
        <mxCell id="zWgI9yotnIDvIBmHH8jw-40" value="－帳號&lt;br&gt;－姓名" style="html=1;align=left;verticalAlign=middle;rounded=1;absoluteArcSize=1;arcSize=10;whiteSpace=wrap;strokeColor=none;opacity=0;" vertex="1" parent="zWgI9yotnIDvIBmHH8jw-39">
          <mxGeometry x="4.968944099378882" y="7.2" width="129.19254658385094" height="24" as="geometry" />
        </mxCell>
        <mxCell id="zWgI9yotnIDvIBmHH8jw-41" value="" style="line;strokeWidth=1;fillColor=none;align=left;verticalAlign=middle;spacingTop=-1;spacingLeft=3;spacingRight=3;rotatable=0;labelPosition=right;points=[];portConstraint=eastwest;" vertex="1" parent="zWgI9yotnIDvIBmHH8jw-38">
          <mxGeometry y="100" width="143" height="8" as="geometry" />
        </mxCell>
        <mxCell id="zWgI9yotnIDvIBmHH8jw-46" value="" style="endArrow=none;html=1;rounded=0;endFill=0;entryX=0.5;entryY=0;entryDx=0;entryDy=0;endSize=6;" edge="1" parent="1" target="zWgI9yotnIDvIBmHH8jw-32">
          <mxGeometry width="50" height="50" relative="1" as="geometry">
            <mxPoint x="546.41" y="-42" as="sourcePoint" />
            <mxPoint x="546.41" y="48" as="targetPoint" />
          </mxGeometry>
        </mxCell>
        <mxCell id="zWgI9yotnIDvIBmHH8jw-47" value="" style="endArrow=none;html=1;rounded=0;endFill=0;entryX=0.5;entryY=0;entryDx=0;entryDy=0;endSize=6;" edge="1" parent="1" target="zWgI9yotnIDvIBmHH8jw-10">
          <mxGeometry width="50" height="50" relative="1" as="geometry">
            <mxPoint x="546.41" y="173" as="sourcePoint" />
            <mxPoint x="547" y="230" as="targetPoint" />
          </mxGeometry>
        </mxCell>
        <mxCell id="zWgI9yotnIDvIBmHH8jw-48" value="&amp;lt;&amp;lt;新增&amp;gt;&amp;gt;" style="text;html=1;strokeColor=none;fillColor=none;align=center;verticalAlign=middle;whiteSpace=wrap;rounded=0;" vertex="1" parent="1">
          <mxGeometry x="547" y="210" width="60" height="30" as="geometry" />
        </mxCell>
        <mxCell id="zWgI9yotnIDvIBmHH8jw-49" value="&lt;b style=&quot;border-color: var(--border-color);&quot;&gt;&lt;br&gt;電影評論數&lt;br&gt;&lt;/b&gt;" style="swimlane;fontStyle=4;align=center;verticalAlign=top;childLayout=stackLayout;horizontal=1;startSize=60;horizontalStack=0;resizeParent=1;resizeParentMax=0;resizeLast=0;collapsible=0;marginBottom=0;html=1;rounded=1;absoluteArcSize=1;arcSize=50;whiteSpace=wrap;" vertex="1" parent="1">
          <mxGeometry x="268" y="-68" width="140" height="68" as="geometry" />
        </mxCell>
        <mxCell id="zWgI9yotnIDvIBmHH8jw-50" value="" style="line;strokeWidth=1;fillColor=none;align=left;verticalAlign=middle;spacingTop=-1;spacingLeft=3;spacingRight=3;rotatable=0;labelPosition=right;points=[];portConstraint=eastwest;" vertex="1" parent="zWgI9yotnIDvIBmHH8jw-49">
          <mxGeometry y="60" width="140" height="8" as="geometry" />
        </mxCell>
        <mxCell id="zWgI9yotnIDvIBmHH8jw-51" value="" style="endArrow=none;html=1;rounded=0;endFill=0;entryX=0.954;entryY=1.033;entryDx=0;entryDy=0;entryPerimeter=0;" edge="1" parent="1" target="zWgI9yotnIDvIBmHH8jw-50">
          <mxGeometry width="50" height="50" relative="1" as="geometry">
            <mxPoint x="477" y="113.41000000000003" as="sourcePoint" />
            <mxPoint x="407" y="10" as="targetPoint" />
          </mxGeometry>
        </mxCell>
        <mxCell id="zWgI9yotnIDvIBmHH8jw-52" value="0..*" style="text;html=1;strokeColor=none;fillColor=none;align=center;verticalAlign=middle;whiteSpace=wrap;rounded=0;" vertex="1" parent="1">
          <mxGeometry x="397" y="-20" width="60" height="30" as="geometry" />
        </mxCell>
        <mxCell id="zWgI9yotnIDvIBmHH8jw-56" value="" style="endArrow=none;html=1;rounded=0;entryX=1;entryY=0.25;entryDx=0;entryDy=0;endFill=0;exitX=0;exitY=0.75;exitDx=0;exitDy=0;" edge="1" parent="1" source="zWgI9yotnIDvIBmHH8jw-10">
          <mxGeometry width="50" height="50" relative="1" as="geometry">
            <mxPoint x="467.5" y="320" as="sourcePoint" />
            <mxPoint x="398.5" y="320.41" as="targetPoint" />
          </mxGeometry>
        </mxCell>
        <mxCell id="zWgI9yotnIDvIBmHH8jw-65" value="&lt;b style=&quot;border-color: var(--border-color);&quot;&gt;&lt;br&gt;評論&lt;br&gt;&lt;/b&gt;" style="swimlane;fontStyle=4;align=center;verticalAlign=top;childLayout=stackLayout;horizontal=1;startSize=60;horizontalStack=0;resizeParent=1;resizeParentMax=0;resizeLast=0;collapsible=0;marginBottom=0;html=1;rounded=1;absoluteArcSize=1;arcSize=50;whiteSpace=wrap;" vertex="1" parent="1">
          <mxGeometry x="160" y="55" width="140" height="118" as="geometry" />
        </mxCell>
        <mxCell id="zWgI9yotnIDvIBmHH8jw-66" value="" style="fillColor=none;strokeColor=none;container=1;collapsible=0;" vertex="1" parent="zWgI9yotnIDvIBmHH8jw-65">
          <mxGeometry y="60" width="140" height="50" as="geometry" />
        </mxCell>
        <mxCell id="zWgI9yotnIDvIBmHH8jw-67" value="" style="html=1;align=center;verticalAlign=middle;rounded=1;absoluteArcSize=1;arcSize=10;whiteSpace=wrap;strokeColor=none;opacity=0;" vertex="1" parent="zWgI9yotnIDvIBmHH8jw-66">
          <mxGeometry y="10" width="130" height="30" as="geometry" />
        </mxCell>
        <mxCell id="zWgI9yotnIDvIBmHH8jw-68" value="－內容&lt;br&gt;－給星數" style="html=1;align=left;verticalAlign=middle;rounded=1;absoluteArcSize=1;arcSize=10;whiteSpace=wrap;strokeColor=none;opacity=0;" vertex="1" parent="zWgI9yotnIDvIBmHH8jw-66">
          <mxGeometry x="6" y="9" width="130" height="30" as="geometry" />
        </mxCell>
        <mxCell id="zWgI9yotnIDvIBmHH8jw-69" value="" style="line;strokeWidth=1;fillColor=none;align=left;verticalAlign=middle;spacingTop=-1;spacingLeft=3;spacingRight=3;rotatable=0;labelPosition=right;points=[];portConstraint=eastwest;" vertex="1" parent="zWgI9yotnIDvIBmHH8jw-65">
          <mxGeometry y="110" width="140" height="8" as="geometry" />
        </mxCell>
        <mxCell id="zWgI9yotnIDvIBmHH8jw-70" value="" style="endArrow=none;html=1;rounded=0;entryX=0.25;entryY=1;entryDx=0;entryDy=0;endFill=0;exitX=0;exitY=0.25;exitDx=0;exitDy=0;" edge="1" parent="1" source="zWgI9yotnIDvIBmHH8jw-34" target="zWgI9yotnIDvIBmHH8jw-71">
          <mxGeometry width="50" height="50" relative="1" as="geometry">
            <mxPoint x="466.5" y="130" as="sourcePoint" />
            <mxPoint x="397.5" y="130.41000000000003" as="targetPoint" />
          </mxGeometry>
        </mxCell>
        <mxCell id="zWgI9yotnIDvIBmHH8jw-71" value="0..*" style="text;html=1;strokeColor=none;fillColor=none;align=center;verticalAlign=middle;whiteSpace=wrap;rounded=0;" vertex="1" parent="1">
          <mxGeometry x="287" y="99" width="60" height="30" as="geometry" />
        </mxCell>
        <mxCell id="zWgI9yotnIDvIBmHH8jw-72" value="1" style="text;html=1;strokeColor=none;fillColor=none;align=center;verticalAlign=middle;whiteSpace=wrap;rounded=0;" vertex="1" parent="1">
          <mxGeometry x="437" y="110" width="60" height="30" as="geometry" />
        </mxCell>
        <mxCell id="zWgI9yotnIDvIBmHH8jw-73" value="1" style="text;html=1;strokeColor=none;fillColor=none;align=center;verticalAlign=middle;whiteSpace=wrap;rounded=0;" vertex="1" parent="1">
          <mxGeometry x="454.5" y="55" width="25" height="30" as="geometry" />
        </mxCell>
        <mxCell id="zWgI9yotnIDvIBmHH8jw-76" value="擁有" style="text;html=1;strokeColor=none;fillColor=none;align=center;verticalAlign=middle;whiteSpace=wrap;rounded=0;" vertex="1" parent="1">
          <mxGeometry x="384" y="104" width="40" height="30" as="geometry" />
        </mxCell>
        <mxCell id="zWgI9yotnIDvIBmHH8jw-81" value="" style="shape=mxgraph.arrows2.wedgeArrow;html=1;bendable=0;startWidth=4.7058823529411775;fillColor=strokeColor;defaultFillColor=invert;defaultGradientColor=invert;rounded=0;" edge="1" parent="1">
          <mxGeometry width="100" height="100" relative="1" as="geometry">
            <mxPoint x="382" y="119" as="sourcePoint" />
            <mxPoint x="367" y="119" as="targetPoint" />
          </mxGeometry>
        </mxCell>
        <mxCell id="zWgI9yotnIDvIBmHH8jw-83" value="" style="endArrow=none;html=1;rounded=0;endFill=0;endSize=6;entryX=0.75;entryY=1;entryDx=0;entryDy=0;" edge="1" parent="1" target="zWgI9yotnIDvIBmHH8jw-65">
          <mxGeometry width="50" height="50" relative="1" as="geometry">
            <mxPoint x="310" y="270" as="sourcePoint" />
            <mxPoint x="307" y="190" as="targetPoint" />
          </mxGeometry>
        </mxCell>
        <mxCell id="zWgI9yotnIDvIBmHH8jw-84" value="&amp;lt;&amp;lt;新增&amp;gt;&amp;gt;" style="text;html=1;strokeColor=none;fillColor=none;align=center;verticalAlign=middle;whiteSpace=wrap;rounded=0;" vertex="1" parent="1">
          <mxGeometry x="297" y="200" width="60" height="30" as="geometry" />
        </mxCell>
      </root>
    </mxGraphModel>
  </diagram>
</mxfile>
